<?xml version="1.0" encoding="iso-8859-1"?>
<!-- Generator: Adobe Illustrator 19.0.0, SVG Export Plug-In . SVG Version: 6.00 Build 0)  -->
<svg version="1.1" id="Layer_1" xmlns="http://www.w3.org/2000/svg" xmlns:xlink="http://www.w3.org/1999/xlink" x="0px" y="0px"
	 viewBox="0 0 469.333 469.333" style="enable-background:new 0 0 469.333 469.333;" xml:space="preserve">
<path style="fill:#F5B945;" d="M458.667,277.333h-448V32c0-11.787,9.547-21.333,21.333-21.333h405.333
	c11.787,0,21.333,9.547,21.333,21.333V277.333z"/>
<g>
	<polygon style="fill:#FFFFFF;" points="282.069,341.333 320,426.667 225.184,426.667 244.149,426.667 149.333,426.667 
		187.264,341.333 	"/>
	<path style="fill:#FFFFFF;" d="M352,442.667c0,8.832-7.168,16-16,16H133.333c-8.832,0-16-7.168-16-16l0,0c0-8.832,7.168-16,16-16
		H336C344.832,426.667,352,433.835,352,442.667L352,442.667z"/>
</g>
<circle cx="234.667" cy="384" r="10.667"/>
<path style="fill:#FFFFFF;" d="M437.333,341.333H32c-11.787,0-21.333-9.547-21.333-21.333v-42.667h448V320
	C458.667,331.787,449.12,341.333,437.333,341.333z"/>
<path d="M437.333,0H32C14.357,0,0,14.357,0,32v245.333V320c0,17.643,14.357,32,32,32h138.848L142.4,416h-9.067
	c-14.709,0-26.667,11.968-26.667,26.667c0,14.699,11.957,26.667,26.667,26.667H336c14.709,0,26.667-11.968,26.667-26.667
	C362.667,427.968,350.709,416,336,416h-9.067l-28.448-64h138.848c17.643,0,32-14.357,32-32v-42.667V32
	C469.333,14.357,454.976,0,437.333,0z M21.333,32c0-5.877,4.779-10.667,10.667-10.667h405.333C443.221,21.333,448,26.123,448,32
	v234.667H21.333V32z M341.333,442.667c0,2.944-2.4,5.333-5.333,5.333H133.333c-2.933,0-5.333-2.389-5.333-5.333
	c0-2.944,2.4-5.333,5.333-5.333h16H320h16C338.933,437.333,341.333,439.723,341.333,442.667z M303.584,416h-59.435h-78.4l28.437-64
	h80.96L303.584,416z M448,320c0,5.877-4.779,10.667-10.667,10.667H282.069h-94.816H32c-5.888,0-10.667-4.789-10.667-10.667v-32H448
	V320z"/>
<polygon style="fill:#D94452;" points="320,234.667 149.333,234.667 128,106.667 341.333,106.667 "/>
<path d="M349.472,99.776c-2.027-2.4-5.003-3.776-8.139-3.776H288c0-29.408-23.925-53.333-53.333-53.333S181.333,66.592,181.333,96
	H128c-3.136,0-6.112,1.376-8.139,3.776c-2.027,2.4-2.901,5.557-2.389,8.651l21.333,128c0.864,5.131,5.312,8.907,10.528,8.907H320
	c5.216,0,9.664-3.776,10.517-8.907l21.333-128C352.373,105.333,351.499,102.165,349.472,99.776z M234.667,64
	c17.643,0,32,14.357,32,32h-64C202.667,78.357,217.024,64,234.667,64z M310.965,224H158.368l-17.771-106.667h40.736v21.333
	c0,5.888,4.768,10.667,10.667,10.667c5.899,0,10.667-4.779,10.667-10.667v-21.333h64v21.333c0,5.888,4.768,10.667,10.667,10.667
	S288,144.555,288,138.667v-21.333h40.736L310.965,224z"/>
<path style="fill:#FFFFFF;" d="M192,160c0,23.563,19.104,42.667,42.667,42.667s42.667-19.104,42.667-42.667H192z"/>
<g>
</g>
<g>
</g>
<g>
</g>
<g>
</g>
<g>
</g>
<g>
</g>
<g>
</g>
<g>
</g>
<g>
</g>
<g>
</g>
<g>
</g>
<g>
</g>
<g>
</g>
<g>
</g>
<g>
</g>
</svg>
